<svg width="320" height="187" viewBox="0 0 320 187" fill="none" xmlns="http://www.w3.org/2000/svg">
<path fill-rule="evenodd" clip-rule="evenodd" d="M255.51 158.349C255.33 159.52 255.244 160.704 255.25 161.889C255.237 165.345 255.948 168.766 257.337 171.933C258.726 175.099 260.762 177.942 263.316 180.279C265.87 182.616 268.884 184.395 272.167 185.504C275.45 186.613 278.929 187.026 282.382 186.717C285.834 186.408 289.183 185.384 292.216 183.71C295.249 182.037 297.898 179.75 299.993 176.998C302.089 174.245 303.586 171.086 304.387 167.723C305.188 164.361 305.277 160.869 304.647 157.47C308.583 157.356 312.321 155.726 315.076 152.921C317.831 150.116 319.388 146.356 319.42 142.43V93.7689L288.475 60.5616H246.076V134.264H138.86C137.223 134.236 135.642 134.852 134.458 135.979C133.274 137.106 132.584 138.653 132.536 140.285V152.327C132.584 153.956 133.275 155.501 134.459 156.624C135.644 157.747 137.226 158.357 138.86 158.323H151.274C150.713 161.665 150.854 165.088 151.689 168.373C152.524 171.659 154.034 174.736 156.124 177.409C158.214 180.082 160.838 182.293 163.829 183.902C166.821 185.511 170.115 186.482 173.503 186.755C176.891 187.028 180.299 186.597 183.511 185.487C186.723 184.378 189.669 182.616 192.162 180.312C194.655 178.009 196.641 175.214 197.994 172.105C199.347 168.995 200.038 165.64 200.022 162.251C200.02 160.945 199.924 159.641 199.737 158.349H255.51ZM68.7557 7.1458H57.9744C57.5079 7.1458 57.2747 7.55928 57.1451 7.9986L55.5642 13.7097C55.4346 14.149 55.927 14.5625 56.3676 14.5625H64.4276C63.7644 16.695 63.4494 18.92 63.4946 21.1523C63.398 23.8274 63.8429 26.4946 64.8029 28.9945C65.7629 31.4944 67.2182 33.7757 69.082 35.7024C70.9458 37.629 73.1798 39.1614 75.6507 40.208C78.1216 41.2546 80.7787 41.7941 83.4633 41.7941C86.1478 41.7941 88.8049 41.2546 91.2758 40.208C93.7467 39.1614 95.9807 37.629 97.8445 35.7024C99.7083 33.7757 101.164 31.4944 102.124 28.9945C103.084 26.4946 103.529 23.8274 103.432 21.1523C103.487 18.4872 103.014 15.8376 102.04 13.3552C101.066 10.8727 99.6107 8.6063 97.7569 6.68577C95.9031 4.76525 93.6874 3.22837 91.2369 2.16321C88.7863 1.09805 86.1491 0.525552 83.4762 0.478516C80.6881 0.481454 77.9326 1.07773 75.3941 2.2275C72.8555 3.37728 70.5923 5.05406 68.7557 7.1458ZM14.3311 37.6138V63.12C11.969 64.9027 10.2576 67.4079 9.45885 70.2525L0.958252 65.084L1.21742 29.4476L14.1756 37.6138H14.3311ZM19.7736 26.0365L32.7318 33.324L15.9639 35.4689L4.01639 28.078L19.5663 26.0365H19.7736ZM16.871 61.5178V38.0014L34.3386 35.779L34.9088 52.4213L41.051 48.2607L47.1932 51.7236L45.9233 34.306L56.2899 33.0914V45.6507C52.4444 47.8635 49.1001 50.8463 46.4675 54.4112C45.2235 55.8584 43.8759 57.3314 42.7874 58.4943C42.6279 58.6275 42.4805 58.7745 42.3468 58.9336C39.7552 62.138 30.4512 61.2852 24.5941 60.7425C22.2097 60.5358 27.6522 61.0009 23.376 60.6133C21.1317 60.2698 18.8357 60.584 16.7673 61.5178H16.871ZM44.2906 31.8251L31.7729 24.4342L36.9562 23.9174L52.7911 30.8689L44.2128 31.8251H44.2906ZM101.799 107.646L105.505 133.333L130.67 116.975V55.7291C130.67 53.673 131.489 51.7011 132.947 50.2472C134.405 48.7933 136.383 47.9765 138.445 47.9765H231.148C233.21 47.9765 235.188 48.7933 236.646 50.2472C238.104 51.7011 238.923 53.673 238.923 55.7291V128.087H140.726L55.2014 182.537H29.6737L59.6849 163.052C59.3615 161.794 59.2997 160.484 59.5035 159.201L62.0952 131.163L64.6868 102.736C60.5402 91.6498 64.1944 84.2848 63.9352 71.2603C56.4972 78.7029 50.7437 84.1814 39.4442 84.5432C35.8677 84.5432 30.1661 84.1297 26.486 83.7421C22.1061 83.1736 19.0998 83.4578 16.3008 79.5298C12.0246 73.3277 17.6744 66.1952 23.2205 67.3581C29.4923 67.9008 40.7659 69.3221 45.0421 64.0762C49.4479 59.8639 52.8171 53.9977 58.6223 52.1112C91.0697 41.6193 99.1298 45.7282 102.032 57.3314C103.153 69.0119 103.646 80.7437 103.51 92.4767C103.516 97.5843 102.977 102.678 101.903 107.672L101.799 107.646ZM87.3378 145.195C87.0747 144.563 86.8835 143.905 86.7676 143.231L83.4762 112.53L80.1589 149.795L87.3378 145.195ZM166.046 162.277C166.046 164.771 167.04 167.164 168.809 168.928C170.578 170.692 172.978 171.683 175.48 171.683C177.982 171.683 180.381 170.692 182.15 168.928C183.919 167.164 184.913 164.771 184.913 162.277C184.913 159.782 183.919 157.389 182.15 155.625C180.381 153.861 177.982 152.87 175.48 152.87C172.978 152.87 170.578 153.861 168.809 155.625C167.04 157.389 166.046 159.782 166.046 162.277ZM288.631 157.522V157.367V157.211V157.082C288.521 156.955 288.426 156.816 288.346 156.669L288.035 156.333H287.905H287.75H287.594H287.439H287.283L283.448 152.947H283.292H283.137H283.007H282.8H282.644H278.912H278.679H278.446H278.264H278.083H277.927H277.798H277.616H277.461H277.305H277.15H276.994H276.839H276.632H276.502H276.372V153.077V153.206V153.387V153.516V153.671C275.66 155.016 275.295 156.517 275.31 158.038C275.329 159.469 275.671 160.877 276.31 162.158C276.949 163.439 277.869 164.56 279.002 165.438C280.135 166.316 281.451 166.929 282.854 167.231C284.256 167.533 285.709 167.516 287.104 167.182C288.499 166.848 289.801 166.206 290.913 165.302C292.026 164.398 292.92 163.257 293.529 161.961C294.139 160.666 294.448 159.251 294.435 157.82C294.421 156.39 294.085 154.98 293.451 153.697L288.631 157.522ZM288.32 74.8265L303.87 93.3554V100.126H261.6V74.904L288.32 74.8265Z" fill="#5CA6E0"/>
</svg>
