<svg width="171" height="100" viewBox="0 0 171 100" fill="none" xmlns="http://www.w3.org/2000/svg">
<g id="movers-icon 2" clip-path="url(#clip0_5_149)">
<path id="Vector" fill-rule="evenodd" clip-rule="evenodd" d="M136.683 84.7766C136.587 85.4057 136.54 86.0414 136.544 86.6778C136.537 88.5337 136.919 90.3707 137.664 92.0712C138.41 93.7717 139.504 95.2982 140.875 96.5532C142.246 97.8081 143.865 98.7638 145.628 99.3591C147.39 99.9544 149.258 100.176 151.112 100.01C152.966 99.8446 154.764 99.2947 156.393 98.396C158.021 97.4973 159.444 96.2695 160.569 94.7912C161.694 93.3129 162.498 91.6166 162.928 89.8109C163.358 88.0052 163.406 86.1298 163.068 84.3047C165.181 84.2438 167.188 83.3681 168.668 81.8619C170.147 80.3558 170.983 78.3363 171 76.2281V50.0971L154.384 32.2648H131.618V71.8429H74.0471C73.1684 71.8279 72.3191 72.159 71.6835 72.7643C71.0479 73.3695 70.6771 74.2003 70.6516 75.0763V81.5432C70.6771 82.418 71.0483 83.2473 71.6844 83.8504C72.3204 84.4535 73.1697 84.7814 74.0471 84.7627H80.7129C80.4116 86.5578 80.4876 88.3957 80.9359 90.16C81.3842 91.9243 82.1951 93.5765 83.3173 95.0119C84.4394 96.4473 85.8483 97.6347 87.4547 98.4986C89.0611 99.3626 90.8299 99.8845 92.6491 100.031C94.4683 100.178 96.2982 99.9458 98.0229 99.3503C99.7475 98.7547 101.329 97.8084 102.668 96.5713C104.007 95.3342 105.073 93.8333 105.8 92.1636C106.526 90.494 106.897 88.6921 106.889 86.8721C106.887 86.1708 106.836 85.4706 106.736 84.7766H136.683ZM36.4043 3.58035H30.6152C30.3647 3.58035 30.2395 3.80239 30.1699 4.0383L29.321 7.10519C29.2515 7.3411 29.5159 7.56314 29.7524 7.56314H34.0803C33.7242 8.70831 33.5551 9.90314 33.5793 11.1019C33.5274 12.5384 33.7664 13.9707 34.2818 15.3131C34.7973 16.6556 35.5787 17.8807 36.5795 18.9153C37.5803 19.9499 38.7799 20.7728 40.1066 21.3348C41.4334 21.8969 42.8601 22.1865 44.3016 22.1865C45.7431 22.1865 47.1699 21.8969 48.4966 21.3348C49.8234 20.7728 51.023 19.9499 52.0237 18.9153C53.0245 17.8807 53.806 16.6556 54.3214 15.3131C54.8369 13.9707 55.0758 12.5384 55.0239 11.1019C55.0534 9.67073 54.7995 8.24786 54.2766 6.91479C53.7537 5.58171 52.9721 4.36464 51.9767 3.33331C50.9813 2.30199 49.7916 1.47668 48.4757 0.904686C47.1599 0.332693 45.7438 0.0252586 44.3086 0C42.8115 0.00157808 41.3319 0.321781 39.9688 0.939211C38.6057 1.55664 37.3905 2.45708 36.4043 3.58035ZM7.18066 19.9417V33.6386C5.9123 34.5959 4.99337 35.9413 4.56445 37.4688L0 34.6933L0.13916 15.5565L7.09717 19.9417H7.18066ZM10.103 13.7247L17.061 17.6381L8.05737 18.7899L1.64209 14.821L9.9917 13.7247H10.103ZM8.54443 32.7782V20.1499L17.9238 18.9564L18.23 27.8934L21.5281 25.6592L24.8262 27.5187L24.1443 18.1654L29.7107 17.5132V24.2576C27.6459 25.4459 25.8501 27.0476 24.4365 28.962C23.7686 29.7391 23.0449 30.5301 22.4604 31.1546C22.3748 31.2262 22.2957 31.3051 22.2239 31.3905C20.8323 33.1113 15.8364 32.6533 12.6914 32.3619C11.4111 32.2509 14.3335 32.5007 12.0374 32.2925C10.8323 32.1081 9.59943 32.2768 8.48877 32.7782H8.54443ZM23.2676 16.8332L16.5461 12.8643L19.3293 12.5867L27.832 16.3197L23.2258 16.8332H23.2676ZM54.1472 57.5493L56.1372 71.3433L69.6497 62.559V29.6697C69.6497 28.5656 70.0895 27.5066 70.8724 26.7259C71.6554 25.9451 72.7172 25.5065 73.8245 25.5065H123.602C124.709 25.5065 125.771 25.9451 126.554 26.7259C127.337 27.5066 127.777 28.5656 127.777 29.6697V68.5262H75.0491L29.1262 97.7657H15.4189L31.5337 87.3023C31.36 86.6269 31.3269 85.9232 31.4363 85.2345L32.8279 70.1776L34.2195 54.9126C31.9929 48.9592 33.9551 45.0042 33.8159 38.01C29.822 42.0067 26.7327 44.9487 20.6653 45.1429C18.7449 45.1429 15.6833 44.9209 13.7073 44.7127C11.3555 44.4074 9.74121 44.5601 8.23828 42.4507C5.94214 39.1202 8.97583 35.29 11.9539 35.9145C15.3215 36.2059 21.375 36.9692 23.6711 34.1521C26.0369 31.8901 27.8459 28.7399 30.9631 27.7269C48.386 22.0927 52.7139 24.2992 54.2725 30.5301C54.8739 36.8026 55.1387 43.1026 55.0657 49.4033C55.069 52.146 54.7798 54.8814 54.2029 57.5631L54.1472 57.5493ZM46.3821 77.713C46.2408 77.374 46.1381 77.0202 46.0759 76.6583L44.3086 60.1721L42.5273 80.1832L46.3821 77.713ZM88.645 86.8859C88.645 88.2256 89.1787 89.5105 90.1286 90.4578C91.0786 91.4051 92.367 91.9373 93.7104 91.9373C95.0539 91.9373 96.3423 91.4051 97.2923 90.4578C98.2422 89.5105 98.7759 88.2256 98.7759 86.8859C98.7759 85.5462 98.2422 84.2614 97.2923 83.3141C96.3423 82.3668 95.0539 81.8346 93.7104 81.8346C92.367 81.8346 91.0786 82.3668 90.1286 83.3141C89.1787 84.2614 88.645 85.5462 88.645 86.8859ZM154.468 84.3325V84.2492V84.166V84.0966C154.409 84.0282 154.358 83.9538 154.315 83.8745L154.148 83.6942H154.078H153.995H153.911H153.828H153.744L151.685 81.8762H151.601H151.518H151.448H151.337H151.253H149.249H149.124H148.999H148.901H148.804H148.72H148.651H148.553H148.47H148.386H148.303H148.219H148.136H148.025H147.955H147.885V81.9456V82.015V82.1121V82.1815V82.2648C147.503 82.9873 147.307 83.7932 147.315 84.6101C147.325 85.3783 147.509 86.1343 147.852 86.8221C148.195 87.51 148.689 88.112 149.298 88.5836C149.906 89.0552 150.613 89.3842 151.366 89.5464C152.119 89.7086 152.899 89.6997 153.648 89.5204C154.397 89.3411 155.096 88.996 155.693 88.5106C156.291 88.0253 156.771 87.4122 157.098 86.7167C157.425 86.0212 157.592 85.2612 157.584 84.4929C157.577 83.7247 157.397 82.9679 157.056 82.2787L154.468 84.3325ZM154.301 39.9251L162.65 49.8751V53.511H139.953V39.9667L154.301 39.9251Z" fill="#5CA6E0"/>
</g>
<defs>
<clipPath id="clip0_5_149">
<rect width="171" height="100" fill="white"/>
</clipPath>
</defs>
</svg>
