<svg width="13" height="12" viewBox="0 0 13 12" fill="none" xmlns="http://www.w3.org/2000/svg">
<path id="Vector" d="M12.29 9.89647L11.595 0.780306L2.47883 0.0853119C2.38293 0.0654604 2.28688 0.06604 2.1972 0.0870112C2.10752 0.107982 2.02629 0.148856 1.95902 0.206864C1.89174 0.264872 1.84 0.33866 1.80728 0.423234C1.77456 0.507808 1.76164 0.601192 1.76938 0.697065C1.77712 0.792938 1.80535 0.889061 1.85215 0.978927C1.89896 1.06879 1.96325 1.1503 2.04067 1.21794C2.11809 1.28558 2.20683 1.33776 2.30089 1.37096C2.39495 1.40416 2.49212 1.4176 2.58584 1.41037L9.41784 1.94182L1.0361 10.3236C0.919894 10.4398 0.861953 10.6047 0.87502 10.7821C0.888087 10.9595 0.971092 11.1348 1.10578 11.2695C1.24046 11.4042 1.41579 11.4872 1.59319 11.5003C1.7706 11.5134 1.93554 11.4554 2.05175 11.3392L10.4335 2.95747L10.9649 9.78947C10.9786 9.96701 11.0623 10.1422 11.1974 10.2766C11.3326 10.4109 11.5082 10.4934 11.6857 10.5058C11.8632 10.5183 12.0279 10.4597 12.1437 10.343C12.2595 10.2262 12.3168 10.0609 12.3031 9.88333L12.29 9.89647Z" fill="black"/>
</svg>
