<svg width="16" height="16" viewBox="0 0 16 16" fill="none" xmlns="http://www.w3.org/2000/svg">
<g clip-path="url(#clip0_5_429)">
<path d="M3.54604 9.66914L2.98931 11.7487L0.953744 11.7917C0.337859 10.6449 0.0105952 9.36528 0.000252994 8.06358C-0.0100893 6.76189 0.296801 5.47727 0.894387 4.3208L2.70685 4.65341L3.50101 6.4546C3.14396 7.4991 3.15987 8.63506 3.54604 9.66914Z" fill="#FBBB00"/>
<path d="M15.8608 6.50578C16.1322 7.93222 16.0101 9.40567 15.5076 10.768C15.0051 12.1303 14.1412 13.3301 13.0085 14.2387L10.7263 14.122L10.4029 12.1049C11.3437 11.5515 12.0662 10.6921 12.4497 9.67017H8.17188V6.50476H15.8567L15.8608 6.50578Z" fill="#518EF8"/>
<path d="M13.0089 14.2386C12.0933 14.9734 11.0273 15.4977 9.88644 15.7745C8.74557 16.0512 7.55779 16.0736 6.40732 15.8399C5.25685 15.6063 4.17186 15.1225 3.22928 14.4227C2.2867 13.7229 1.50962 12.8243 0.953125 11.7906L3.54542 9.66809C3.78887 10.317 4.17114 10.9049 4.66551 11.3907C5.15988 11.8764 5.75441 12.2483 6.4075 12.4803C7.0606 12.7123 7.7565 12.7988 8.44652 12.7338C9.13654 12.6687 9.80402 12.4537 10.4023 12.1038L13.0089 14.2386Z" fill="#28B446"/>
<path d="M13.1069 1.84218L10.5146 3.96371C9.90745 3.58574 9.22291 3.34951 8.51188 3.27258C7.80085 3.19565 7.08162 3.28 6.40769 3.51936C5.73375 3.75873 5.12245 4.14694 4.61924 4.65514C4.11603 5.16333 3.73386 5.77843 3.50116 6.4547L0.894531 4.32088C1.44442 3.25963 2.22506 2.33504 3.17911 1.61504C4.13317 0.89503 5.2364 0.397893 6.40777 0.160144C7.57913 -0.0776044 8.78889 -0.0499254 9.94816 0.241148C11.1074 0.532222 12.1868 1.0793 13.1069 1.84218Z" fill="#F14336"/>
</g>
<defs>
<clipPath id="clip0_5_429">
<rect width="16" height="16" fill="white"/>
</clipPath>
</defs>
</svg>
