<svg width="93" height="40" viewBox="0 0 93 40" fill="none" xmlns="http://www.w3.org/2000/svg">
<path d="M20.2425 18.2429C20.132 17.8996 19.8295 17.6465 19.4716 17.5971L15.3727 17.0007L13.54 13.2858C13.38 12.96 13.0513 12.7563 12.6876 12.7563C12.324 12.7563 11.9953 12.96 11.8353 13.2858L10.0025 17.0007L5.90364 17.5942C5.54582 17.6465 5.24618 17.8996 5.13564 18.2429C5.02509 18.5862 5.11818 18.9643 5.37709 19.2174L8.34437 22.1091L7.64618 26.1905C7.58509 26.5483 7.73055 26.9062 8.02437 27.1214C8.19018 27.2436 8.38509 27.3018 8.58291 27.3018C8.73418 27.3018 8.88837 27.2669 9.02509 27.1913L12.6905 25.2625L16.356 27.1883C16.4956 27.264 16.6469 27.2989 16.7982 27.2989C16.996 27.2989 17.1909 27.2378 17.3567 27.1185C17.6505 26.9062 17.796 26.5454 17.7349 26.1876L17.0367 22.1062L20.004 19.2145C20.2629 18.9643 20.356 18.5862 20.2425 18.2429Z" stroke="black" stroke-width="0.116364"/>
<path d="M20.2425 18.2429C20.132 17.8996 19.8295 17.6465 19.4716 17.5971L15.3727 17.0007L13.54 13.2858C13.38 12.96 13.0513 12.7563 12.6876 12.7563C12.324 12.7563 11.9953 12.96 11.8353 13.2858L10.0025 17.0007L5.90364 17.5942C5.54582 17.6465 5.24618 17.8996 5.13564 18.2429C5.02509 18.5862 5.11818 18.9643 5.37709 19.2174L8.34437 22.1091L7.64618 26.1905C7.58509 26.5483 7.73055 26.9062 8.02437 27.1214C8.19018 27.2436 8.38509 27.3018 8.58291 27.3018C8.73418 27.3018 8.88837 27.2669 9.02509 27.1913L12.6905 25.2625L16.356 27.1883C16.4956 27.264 16.6469 27.2989 16.7982 27.2989C16.996 27.2989 17.1909 27.2378 17.3567 27.1185C17.6505 26.9062 17.796 26.5454 17.7349 26.1876L17.0367 22.1062L20.004 19.2145C20.2629 18.9643 20.356 18.5862 20.2425 18.2429Z" fill="url(#paint0_linear_5_435)"/>
<path d="M8.61038 27.3047C8.39801 27.3047 8.2002 27.2407 8.03438 27.1185C7.73183 26.8974 7.58056 26.528 7.64456 26.1585L8.34274 22.0887L5.38711 19.2087C5.12238 18.9498 5.02638 18.5571 5.13692 18.2051C5.25038 17.8531 5.56165 17.5913 5.9282 17.536L10.0126 16.9425L11.8395 13.2422C12.0053 12.9047 12.3427 12.6953 12.718 12.7534C12.7355 12.7534 12.7471 12.7651 12.7471 12.7825V25.2945C12.7471 25.3062 12.7413 25.3149 12.7326 25.3207L9.06711 27.2494C8.93038 27.264 8.77329 27.3047 8.61038 27.3047Z" fill="url(#paint1_linear_5_435)"/>
<path d="M37.6485 18.2429C37.5289 17.8996 37.2016 17.6465 36.8145 17.5971L32.3802 17.0007L30.3975 13.2858C30.2244 12.96 29.8688 12.7563 29.4754 12.7563C29.082 12.7563 28.7264 12.96 28.5533 13.2858L26.5706 17.0007L22.1362 17.5942C21.7491 17.6465 21.425 17.8996 21.3054 18.2429C21.1858 18.5862 21.2865 18.9643 21.5666 19.2174L24.7767 22.1091L24.0214 26.1905C23.9553 26.5483 24.1126 26.9062 24.4305 27.1214C24.6099 27.2436 24.8208 27.3018 25.0348 27.3018C25.1984 27.3018 25.3652 27.2669 25.5131 27.1913L29.4785 25.2625L33.4439 27.1883C33.595 27.264 33.7586 27.2989 33.9223 27.2989C34.1363 27.2989 34.3472 27.2378 34.5265 27.1185C34.8444 26.9062 35.0018 26.5454 34.9357 26.1876L34.1804 22.1062L37.3904 19.2145C37.6705 18.9643 37.7712 18.5862 37.6485 18.2429Z" stroke="black" stroke-width="0.116364"/>
<path d="M37.6485 18.2429C37.5289 17.8996 37.2016 17.6465 36.8145 17.5971L32.3802 17.0007L30.3975 13.2858C30.2244 12.96 29.8688 12.7563 29.4754 12.7563C29.082 12.7563 28.7264 12.96 28.5533 13.2858L26.5706 17.0007L22.1362 17.5942C21.7491 17.6465 21.425 17.8996 21.3054 18.2429C21.1858 18.5862 21.2865 18.9643 21.5666 19.2174L24.7767 22.1091L24.0214 26.1905C23.9553 26.5483 24.1126 26.9062 24.4305 27.1214C24.6099 27.2436 24.8208 27.3018 25.0348 27.3018C25.1984 27.3018 25.3652 27.2669 25.5131 27.1913L29.4785 25.2625L33.4439 27.1883C33.595 27.264 33.7586 27.2989 33.9223 27.2989C34.1363 27.2989 34.3471 27.2378 34.5265 27.1185C34.8444 26.9062 35.0018 26.5454 34.9357 26.1876L34.1804 22.1062L37.3904 19.2145C37.6705 18.9643 37.7712 18.5862 37.6485 18.2429Z" fill="url(#paint2_linear_5_435)"/>
<path d="M25.0643 27.3047C24.8346 27.3047 24.6206 27.2407 24.4412 27.1185C24.1139 26.8974 23.9502 26.528 24.0195 26.1585L24.7748 22.0887L21.5773 19.2087C21.2909 18.9498 21.187 18.5571 21.3066 18.2051C21.4294 17.8531 21.7661 17.5913 22.1627 17.536L26.5812 16.9425L28.5576 13.2422C28.737 12.9047 29.1021 12.6953 29.5081 12.7534C29.527 12.7534 29.5396 12.7651 29.5396 12.7825V25.2945C29.5396 25.3062 29.5333 25.3149 29.5238 25.3207L25.5584 27.2494C25.4105 27.264 25.2406 27.3047 25.0643 27.3047Z" fill="url(#paint3_linear_5_435)"/>
<path d="M56.2425 18.2429C56.132 17.8996 55.8295 17.6465 55.4716 17.5971L51.3727 17.0007L49.54 13.2858C49.38 12.96 49.0513 12.7563 48.6876 12.7563C48.324 12.7563 47.9953 12.96 47.8353 13.2858L46.0025 17.0007L41.9036 17.5942C41.5458 17.6465 41.2462 17.8996 41.1356 18.2429C41.0251 18.5862 41.1182 18.9643 41.3771 19.2174L44.3444 22.1091L43.6462 26.1905C43.5851 26.5483 43.7305 26.9062 44.0244 27.1214C44.1902 27.2436 44.3851 27.3018 44.5829 27.3018C44.7342 27.3018 44.8884 27.2669 45.0251 27.1913L48.6905 25.2625L52.356 27.1883C52.4956 27.264 52.6469 27.2989 52.7982 27.2989C52.996 27.2989 53.1909 27.2378 53.3567 27.1185C53.6505 26.9062 53.796 26.5454 53.7349 26.1876L53.0367 22.1062L56.004 19.2145C56.2629 18.9643 56.356 18.5862 56.2425 18.2429Z" stroke="black" stroke-width="0.116364"/>
<path d="M56.2425 18.2429C56.132 17.8996 55.8295 17.6465 55.4716 17.5971L51.3727 17.0007L49.54 13.2858C49.38 12.96 49.0513 12.7563 48.6876 12.7563C48.324 12.7563 47.9953 12.96 47.8353 13.2858L46.0025 17.0007L41.9036 17.5942C41.5458 17.6465 41.2462 17.8996 41.1356 18.2429C41.0251 18.5862 41.1182 18.9643 41.3771 19.2174L44.3444 22.1091L43.6462 26.1905C43.5851 26.5483 43.7305 26.9062 44.0244 27.1214C44.1902 27.2436 44.3851 27.3018 44.5829 27.3018C44.7342 27.3018 44.8884 27.2669 45.0251 27.1913L48.6905 25.2625L52.356 27.1883C52.4956 27.264 52.6469 27.2989 52.7982 27.2989C52.996 27.2989 53.1909 27.2378 53.3567 27.1185C53.6505 26.9062 53.796 26.5454 53.7349 26.1876L53.0367 22.1062L56.004 19.2145C56.2629 18.9643 56.356 18.5862 56.2425 18.2429Z" fill="url(#paint4_linear_5_435)"/>
<path d="M44.6104 27.3047C44.398 27.3047 44.2002 27.2407 44.0344 27.1185C43.7318 26.8974 43.5806 26.528 43.6446 26.1585L44.3427 22.0887L41.3871 19.2087C41.1224 18.9498 41.0264 18.5571 41.1369 18.2051C41.2504 17.8531 41.5617 17.5913 41.9282 17.536L46.0126 16.9425L47.8395 13.2422C48.0053 12.9047 48.3427 12.6953 48.718 12.7534C48.7355 12.7534 48.7471 12.7651 48.7471 12.7825V25.2945C48.7471 25.3062 48.7413 25.3149 48.7326 25.3207L45.0671 27.2494C44.9304 27.264 44.7733 27.3047 44.6104 27.3047Z" fill="url(#paint5_linear_5_435)"/>
<path d="M74.2425 18.2429C74.132 17.8996 73.8295 17.6465 73.4716 17.5971L69.3727 17.0007L67.54 13.2858C67.38 12.96 67.0513 12.7563 66.6876 12.7563C66.324 12.7563 65.9953 12.96 65.8353 13.2858L64.0025 17.0007L59.9036 17.5942C59.5458 17.6465 59.2462 17.8996 59.1356 18.2429C59.0251 18.5862 59.1182 18.9643 59.3771 19.2174L62.3444 22.1091L61.6462 26.1905C61.5851 26.5483 61.7305 26.9062 62.0244 27.1214C62.1902 27.2436 62.3851 27.3018 62.5829 27.3018C62.7342 27.3018 62.8884 27.2669 63.0251 27.1913L66.6905 25.2625L70.356 27.1883C70.4956 27.264 70.6469 27.2989 70.7982 27.2989C70.996 27.2989 71.1909 27.2378 71.3567 27.1185C71.6505 26.9062 71.796 26.5454 71.7349 26.1876L71.0367 22.1062L74.004 19.2145C74.2629 18.9643 74.356 18.5862 74.2425 18.2429Z" stroke="black" stroke-width="0.116364"/>
<path d="M74.2425 18.2429C74.132 17.8996 73.8295 17.6465 73.4716 17.5971L69.3727 17.0007L67.54 13.2858C67.38 12.96 67.0513 12.7563 66.6876 12.7563C66.324 12.7563 65.9953 12.96 65.8353 13.2858L64.0025 17.0007L59.9036 17.5942C59.5458 17.6465 59.2462 17.8996 59.1356 18.2429C59.0251 18.5862 59.1182 18.9643 59.3771 19.2174L62.3444 22.1091L61.6462 26.1905C61.5851 26.5483 61.7305 26.9062 62.0244 27.1214C62.1902 27.2436 62.3851 27.3018 62.5829 27.3018C62.7342 27.3018 62.8884 27.2669 63.0251 27.1913L66.6905 25.2625L70.356 27.1883C70.4956 27.264 70.6469 27.2989 70.7982 27.2989C70.996 27.2989 71.1909 27.2378 71.3567 27.1185C71.6505 26.9062 71.796 26.5454 71.7349 26.1876L71.0367 22.1062L74.004 19.2145C74.2629 18.9643 74.356 18.5862 74.2425 18.2429Z" fill="url(#paint6_linear_5_435)"/>
<path d="M62.6104 27.3047C62.398 27.3047 62.2002 27.2407 62.0344 27.1185C61.7318 26.8974 61.5806 26.528 61.6446 26.1585L62.3427 22.0887L59.3871 19.2087C59.1224 18.9498 59.0264 18.5571 59.1369 18.2051C59.2504 17.8531 59.5617 17.5913 59.9282 17.536L64.0126 16.9425L65.8395 13.2422C66.0053 12.9047 66.3427 12.6953 66.718 12.7534C66.7355 12.7534 66.7471 12.7651 66.7471 12.7825V25.2945C66.7471 25.3062 66.7413 25.3149 66.7326 25.3207L63.0671 27.2494C62.9304 27.264 62.7733 27.3047 62.6104 27.3047Z" fill="url(#paint7_linear_5_435)"/>
<g clip-path="url(#clip0_5_435)">
<path d="M92.2425 18.2429C92.132 17.8996 91.8295 17.6465 91.4716 17.5971L87.3727 17.0007L85.54 13.2858C85.38 12.96 85.0513 12.7563 84.6876 12.7563C84.324 12.7563 83.9953 12.96 83.8353 13.2858L82.0025 17.0007L77.9036 17.5942C77.5458 17.6465 77.2462 17.8996 77.1356 18.2429C77.0251 18.5862 77.1182 18.9643 77.3771 19.2174L80.3444 22.1091L79.6462 26.1905C79.5851 26.5483 79.7305 26.9062 80.0244 27.1214C80.1902 27.2436 80.3851 27.3018 80.5829 27.3018C80.7342 27.3018 80.8884 27.2669 81.0251 27.1913L84.6905 25.2625L88.356 27.1883C88.4956 27.264 88.6469 27.2989 88.7982 27.2989C88.996 27.2989 89.1909 27.2378 89.3567 27.1185C89.6505 26.9062 89.796 26.5454 89.7349 26.1876L89.0367 22.1062L92.004 19.2145C92.2629 18.9643 92.356 18.5862 92.2425 18.2429Z" stroke="black" stroke-width="0.116364"/>
<path d="M92.2425 18.2429C92.132 17.8996 91.8295 17.6465 91.4716 17.5971L87.3727 17.0007L85.54 13.2858C85.38 12.96 85.0513 12.7563 84.6876 12.7563C84.324 12.7563 83.9953 12.96 83.8353 13.2858L82.0025 17.0007L77.9036 17.5942C77.5458 17.6465 77.2462 17.8996 77.1356 18.2429C77.0251 18.5862 77.1182 18.9643 77.3771 19.2174L80.3444 22.1091L79.6462 26.1905C79.5851 26.5483 79.7305 26.9062 80.0244 27.1214C80.1902 27.2436 80.3851 27.3018 80.5829 27.3018C80.7342 27.3018 80.8884 27.2669 81.0251 27.1913L84.6905 25.2625L88.356 27.1883C88.4956 27.264 88.6469 27.2989 88.7982 27.2989C88.996 27.2989 89.1909 27.2378 89.3567 27.1185C89.6505 26.9062 89.796 26.5454 89.7349 26.1876L89.0367 22.1062L92.004 19.2145C92.2629 18.9643 92.356 18.5862 92.2425 18.2429Z" fill="url(#paint8_linear_5_435)"/>
<path d="M80.6104 27.3047C80.398 27.3047 80.2002 27.2407 80.0344 27.1185C79.7318 26.8974 79.5806 26.528 79.6446 26.1585L80.3427 22.0887L77.3871 19.2087C77.1224 18.9498 77.0264 18.5571 77.1369 18.2051C77.2504 17.8531 77.5617 17.5913 77.9282 17.536L82.0126 16.9425L83.8395 13.2422C84.0053 12.9047 84.3427 12.6953 84.718 12.7534C84.7355 12.7534 84.7471 12.7651 84.7471 12.7825V25.2945C84.7471 25.3062 84.7413 25.3149 84.7326 25.3207L81.0671 27.2494C80.9304 27.264 80.7733 27.3047 80.6104 27.3047Z" fill="url(#paint9_linear_5_435)"/>
</g>
<defs>
<linearGradient id="paint0_linear_5_435" x1="5.08909" y1="6.99926" x2="5.08909" y2="22.9993" gradientUnits="userSpaceOnUse">
<stop stop-color="#FCC153"/>
<stop offset="1" stop-color="#FCC153"/>
</linearGradient>
<linearGradient id="paint1_linear_5_435" x1="5.09038" y1="6.99927" x2="5.09038" y2="22.9993" gradientUnits="userSpaceOnUse">
<stop stop-color="#FCC153"/>
<stop offset="1" stop-color="#FCC153"/>
</linearGradient>
<linearGradient id="paint2_linear_5_435" x1="21.255" y1="6.99926" x2="21.255" y2="22.9993" gradientUnits="userSpaceOnUse">
<stop stop-color="#FCC153"/>
<stop offset="1" stop-color="#FCC153"/>
</linearGradient>
<linearGradient id="paint3_linear_5_435" x1="21.2563" y1="6.99927" x2="21.2563" y2="22.9993" gradientUnits="userSpaceOnUse">
<stop stop-color="#FCC153"/>
<stop offset="1" stop-color="#FCC153"/>
</linearGradient>
<linearGradient id="paint4_linear_5_435" x1="41.0891" y1="6.99926" x2="41.0891" y2="22.9993" gradientUnits="userSpaceOnUse">
<stop stop-color="#FCC153"/>
<stop offset="1" stop-color="#FCC153"/>
</linearGradient>
<linearGradient id="paint5_linear_5_435" x1="41.0904" y1="6.99927" x2="41.0904" y2="22.9993" gradientUnits="userSpaceOnUse">
<stop stop-color="#FCC153"/>
<stop offset="1" stop-color="#FCC153"/>
</linearGradient>
<linearGradient id="paint6_linear_5_435" x1="59.0891" y1="6.99926" x2="59.0891" y2="22.9993" gradientUnits="userSpaceOnUse">
<stop stop-color="#FCC153"/>
<stop offset="1" stop-color="#FCC153"/>
</linearGradient>
<linearGradient id="paint7_linear_5_435" x1="59.0904" y1="6.99927" x2="59.0904" y2="22.9993" gradientUnits="userSpaceOnUse">
<stop stop-color="#FCC153"/>
<stop offset="1" stop-color="#FCC153"/>
</linearGradient>
<linearGradient id="paint8_linear_5_435" x1="77.0891" y1="6.99926" x2="77.0891" y2="22.9993" gradientUnits="userSpaceOnUse">
<stop stop-color="#FCC153"/>
<stop offset="1" stop-color="#FCC153"/>
</linearGradient>
<linearGradient id="paint9_linear_5_435" x1="77.0904" y1="6.99927" x2="77.0904" y2="22.9993" gradientUnits="userSpaceOnUse">
<stop stop-color="#FCC153"/>
<stop offset="1" stop-color="#FCC153"/>
</linearGradient>
<clipPath id="clip0_5_435">
<rect width="18" height="40" fill="white" transform="translate(74.6094)"/>
</clipPath>
</defs>
</svg>
